<svg width="151" height="27" viewBox="0 0 151 27" xmlns="http://www.w3.org/2000/svg" xmlns:xlink="http://www.w3.org/1999/xlink"><title>logo_white</title><defs><path d="M.659 5.886h.925v14.546H.659V5.886zm.448-3.812a.909.909 0 0 1-.645-.266.841.841 0 0 1-.28-.63c0-.262.089-.482.266-.66a.895.895 0 0 1 .66-.266c.242 0 .457.089.644.267.187.177.28.387.28.63a.886.886 0 0 1-.28.645.886.886 0 0 1-.645.28z" id="a"/><path d="M13.103 5.325c1.233 0 2.34.262 3.321.785a6.13 6.13 0 0 1 2.369 2.242V5.437h1.906v20.18h-1.99v-8.212c-.617.953-1.406 1.677-2.369 2.172-.962.496-2.041.743-3.237.743-1.401 0-2.658-.313-3.77-.939a6.74 6.74 0 0 1-2.62-2.648c-.636-1.14-.953-2.448-.953-3.924 0-1.458.317-2.756.953-3.896a6.714 6.714 0 0 1 2.634-2.649c1.121-.626 2.373-.939 3.756-.939zm.168 1.738c-1.046 0-1.985.243-2.817.729a5.197 5.197 0 0 0-1.962 2.032c-.476.869-.714 1.864-.714 2.985 0 1.12.238 2.12.714 2.999a5.076 5.076 0 0 0 1.962 2.032c.832.476 1.77.714 2.817.714 1.028 0 1.957-.238 2.789-.714a5.076 5.076 0 0 0 1.962-2.032c.476-.879.715-1.878.715-3 0-1.12-.239-2.115-.715-2.984a5.197 5.197 0 0 0-1.962-2.032c-.832-.486-1.761-.729-2.789-.729z" id="b"/><path d="M31.882 20.04c-1.458 0-2.761-.318-3.91-.953a6.898 6.898 0 0 1-2.705-2.677c-.654-1.149-.98-2.443-.98-3.881 0-1.44.326-2.728.98-3.868a6.925 6.925 0 0 1 2.705-2.663c1.149-.635 2.452-.953 3.91-.953 1.27 0 2.405.248 3.405.743s1.79 1.22 2.368 2.172L36.17 8.969a4.648 4.648 0 0 0-1.85-1.64 5.49 5.49 0 0 0-2.438-.546c-1.065 0-2.023.238-2.873.715a5.022 5.022 0 0 0-1.99 2.032c-.477.878-.715 1.877-.715 2.999 0 1.14.238 2.144.715 3.013a5.045 5.045 0 0 0 1.99 2.018c.85.476 1.808.714 2.873.714a5.61 5.61 0 0 0 2.438-.532c.748-.355 1.364-.897 1.85-1.626l1.485 1.01a5.636 5.636 0 0 1-2.382 2.171c-1.009.495-2.14.743-3.391.743z" id="c"/><path d="M47.045 4.597c1.42 0 2.686.322 3.798.967a6.79 6.79 0 0 1 2.606 2.704c.626 1.159.939 2.485.939 3.98 0 .206-.019.477-.056.813H42.28c.168 1.308.743 2.359 1.724 3.153.98.794 2.2 1.191 3.657 1.191 1.775 0 3.205-.598 4.289-1.793l1.485 1.737a6.507 6.507 0 0 1-2.508 1.794c-1 .411-2.117.617-3.35.617-1.57 0-2.961-.323-4.176-.967-1.214-.645-2.153-1.546-2.817-2.705-.663-1.158-.995-2.466-.995-3.924 0-1.439.323-2.737.967-3.896a6.927 6.927 0 0 1 2.663-2.704c1.13-.645 2.406-.967 3.826-.967zm0 2.27c-1.29 0-2.369.392-3.237 1.177-.87.785-1.379 1.813-1.528 3.083h9.53c-.15-1.252-.66-2.275-1.528-3.069-.869-.794-1.948-1.191-3.237-1.191z" id="d"/><path d="M66.44 3.952c1.869 0 3.377.56 4.526 1.681 1.15 1.122 1.724 2.784 1.724 4.99v8.632h-4.372v-7.96c0-1.196-.262-2.088-.785-2.677-.523-.588-1.28-.883-2.27-.883-1.103 0-1.98.342-2.635 1.024-.654.682-.98 1.695-.98 3.04v7.456h-4.373V4.176h4.176v1.766c.58-.636 1.299-1.126 2.158-1.472.86-.345 1.803-.518 2.831-.518z" id="e"/><path d="M85.695 18.19c-.43.318-.957.556-1.583.715a8.006 8.006 0 0 1-1.976.238c-1.794 0-3.182-.458-4.163-1.373-.98-.916-1.471-2.261-1.471-4.036V7.539h-2.326V4.176h2.326V.505h4.372v3.671h3.756V7.54h-3.756v6.139c0 .635.164 1.125.49 1.471.328.346.79.519 1.388.519.692 0 1.28-.187 1.766-.561l1.177 3.083z" id="f"/><linearGradient x1="100%" y1="50%" x2="0%" y2="50%" id="g"><stop stop-color="#FFBF00" offset="0%"/><stop stop-color="#C65D4D" offset="38.202%"/><stop stop-color="#7D1AB3" offset="100%"/></linearGradient><linearGradient x1="85.355%" y1="38.455%" x2="14.645%" y2="61.545%" id="h"><stop stop-color="#DE7700" stop-opacity=".6" offset="0%"/><stop stop-color="#B4007A" stop-opacity=".7" offset="49.065%"/><stop stop-color="#3B0099" offset="100%"/></linearGradient></defs><g fill-rule="nonzero" fill="none"><g transform="translate(65 1)"><use fill="#000" xlink:href="#a"/><use fill="#FFF" xlink:href="#a"/></g><g transform="translate(65 1)"><use fill="#000" xlink:href="#b"/><use fill="#FFF" xlink:href="#b"/></g><g transform="translate(65 1)"><use fill="#000" xlink:href="#c"/><use fill="#FFF" xlink:href="#c"/></g><g transform="translate(65 1)"><use fill="#000" xlink:href="#d"/><use fill="#FFF" xlink:href="#d"/></g><g transform="translate(65 1)"><use fill="#000" xlink:href="#e"/><use fill="#FFF" xlink:href="#e"/></g><g transform="translate(65 1)"><use fill="#000" xlink:href="#f"/><use fill="#FFF" xlink:href="#f"/></g><g><path d="M53.719 2.056L35.85 20.624a3.504 3.504 0 0 1-4.925.122l-.077-.074-6.249-6.249-10.836 11.122a3.504 3.504 0 0 1-4.93.088l-.075-.074L0 16.668a7.007 7.007 0 0 1 9.909.074l1.331 1.352L22.058 6.99a3.504 3.504 0 0 1 4.91-.106l.077.074 6.233 6.233L43.811 2.246a7.007 7.007 0 0 1 9.908-.19z" fill="url(#g)"/><path d="M11.255 18.195l2.06 2.298a3.503 3.503 0 0 0 5.11.114l6.143-6.266 6.281 6.407a3.503 3.503 0 0 0 4.98.025l2.227-2.228 6.306-6.481-3.695 3.798a3.503 3.503 0 0 1-5.115-.1l-2.226-2.472-6.075-6.323a3.503 3.503 0 0 0-5.035-.018L11.255 18.195z" fill="url(#h)" opacity=".7"/></g></g></svg>